<svg height="110%" viewBox="0 0 173 284" fill="none" xmlns="http://www.w3.org/2000/svg">
<path d=" M94.5354 -60.7023C81.7561 -52.3193 75.6741 -36.9647 76.7331 -21.7241C78.5935 5.42094 96.1955 25.6087 111.522 46.3238C114.67 50.5581 117.761 54.935 120.624 59.4401C130.841 75.5361 127.464 97.4061 111.765 108.227C102.778 114.429 95.8091 124.28 92.7752 134.859C87.3801 153.692 91.659 173.88 97.555 192.571C100.517 201.966 103.88 212.117 100.646 221.412C96.4387 233.488 82.6433 239.404 69.9212 240.93C57.1991 242.455 44.0048 241.058 31.7836 244.936C15.3837 250.14 2.63297 265.323 0.371894 282.346C-1.90349 299.383 6.42526 317.375 20.8932 326.699C37.3361 337.306 58.6445 336.394 77.9209 335.495C94.4782 334.726 110.993 333.585 127.507 332.074C146.497 330.32 165.959 327.868 182.674 318.729C213.098 302.092 228.382 266.435 232.489 232.048C236.883 195.322 231.03 158.155 223.459 121.942C214.53 79.2857 207.432 20.1911 183.189 -16.7627C166.289 -42.539 127.879 -82.558 94.5354 -60.7023Z " fill="#004BBE"></path></svg>