<svg width="24" height="24" viewBox="0 0 24 24" fill="#949494" xmlns="http://www.w3.org/2000/svg">
<path d="M19.813 10.842v3.632c0 .699.295 1.332.772 1.79a.42.42 0 0 1-.29.736H4.433c-.404 0-.576-.463-.29-.737.478-.457.773-1.09.773-1.79v-3.63c0-2.999 1.921-5.56 4.643-6.625.13-.05.22-.16.253-.29C10.091 2.82 11.128 2 12.364 2c1.237 0 2.27.821 2.55 1.928.034.13.123.24.254.29 2.72 1.065 4.645 3.626 4.645 6.624zM15.4 19c.375 0 .663.292.588.602-.33 1.369-1.767 2.398-3.487 2.398-1.725 0-3.158-1.029-3.49-2.398-.074-.31.214-.602.59-.602H15.4z"></path></svg>