<svg width="24" height="24" viewBox="0 0 24 24" fill="white" xmlns="http://www.w3.org/2000/svg">
<path d="M6.892 5.571A3.468 3.468 0 0 1 10.262 3h3.477a3.473 3.473 0 0 1 3.369 2.571h1.416c1.92 0 3.476 1.536 3.476 3.43v8.57C22 19.464 20.442 21 18.524 21H5.476C3.556 21 2 19.465 2 17.571v-8.57c0-1.893 1.558-3.43 3.476-3.43h1.416zm9.456 7.715C16.348 10.919 14.4 9 12 9s-4.348 1.919-4.348 4.286c0 2.367 1.947 4.285 4.348 4.285s4.348-1.918 4.348-4.285zm-6.957 0c0-1.42 1.168-2.572 2.609-2.572 1.44 0 2.609 1.152 2.609 2.572 0 1.42-1.168 2.571-2.609 2.571-1.44 0-2.609-1.151-2.609-2.571z"></path></svg>