<svg width="24" height="24" viewBox="0 0 24 24" fill="#949494" xmlns="http://www.w3.org/2000/svg">
<path d="M7.249 21.204v-1.902c0-.58-.47-1.05-1.05-1.05A4.2 4.2 0 0 1 2 14.053v-5.86A4.194 4.194 0 0 1 6.193 4h11.734a4.193 4.193 0 0 1 4.193 4.193v5.866a4.193 4.193 0 0 1-4.193 4.193h-5.013c-.444 0-.87.177-1.185.49l-3.05 3.048c-.525.526-1.424.158-1.43-.586zm.617-8.828a1.255 1.255 0 1 0 0-2.512 1.256 1.256 0 1 0 0 2.512zm8.383 0a1.255 1.255 0 1 0 0-2.512 1.256 1.256 0 1 0 0 2.512zm-4.191 0a1.255 1.255 0 1 0 0-2.512 1.256 1.256 0 1 0 0 2.512z"></path></svg>